# xmcd CD database file
#
# Track frame offsets:
#	150
#	15354
#	28287
#	48532
#	62047
#	75354
#	95059
#	110151
#	122106
#	150362
#	164745
#	181892
#	197786
#	209972
#	224588
#	241561
#
# Disc length: 3407 seconds
#
# Revision: 0
# Processed by: cddbd v1.5.2PL0 Copyright (c) Steve Scherf et al.
# Submitted via: CDex 1.70beta2
#
DISCID=e50d4d10
DTITLE=Various Artist - Ireland I Love You - Veil Of White Lace [CD1]
DYEAR=2004
DGENRE=Country
TTITLE0=ANN BREEN - When You And I Were Young Maggie
TTITLE1=HUGO DUNCAN - Carrickfergus
TTITLE2=BRIAN COLL - The Road To Kildare
TTITLE3=SUSAN MCCANN - Eileen McManus
TTITLE4=ANN BREEN - Irish Lullabay
TTITLE5=KATHY DURKIN - Working Man
TTITLE6=ANN BREEN - Bunch Of Violets Blue
TTITLE7=EILEEN DONAGHY - A Mothers Loves A Blessing
TTITLE8=THE DUBLINERS - And The Band Played Waltzing Matilda
TTITLE9=MARGO - Little Sweethart
TTITLE10=FRANK MCCAFFREY - My Eileen
TTITLE11=LOGUE and MCCOOL - I Just Want To Dance With You
TTITLE12=ROY DANIELS - Hello Darlin
TTITLE13=HUGO DUNCAN - Veil Of White Lace
TTITLE14=TEAMWORK - Give An Irish Girl To Me
TTITLE15=HUGO DUNCAN - Wedding Song
EXTD=YEAR: 2004
EXTT0=
EXTT1=
EXTT2=
EXTT3=
EXTT4=
EXTT5=
EXTT6=
EXTT7=
EXTT8=
EXTT9=
EXTT10=
EXTT11=
EXTT12=
EXTT13=
EXTT14=
EXTT15=
PLAYORDER=
